<svg width="1000" height="1000" xmlns="http://www.w3.org/2000/svg">
 <metadata>Svg Vector Icons : http://www.onlinewebfonts.com/icon</metadata>

 <g>
  <title>background</title>
  <rect fill="none" id="canvas_background" height="402" width="582" y="-1" x="-1"/>
 </g>
 <g>
  <title>Layer 1</title>
  <g stroke="null" id="svg_1">
   <path stroke="null" fill="#5a6268" id="svg_2" d="m695.716135,199.079285l-482.560511,482.560511c-27.989114,27.989114 -27.989114,73.295233 0,101.183666c27.888433,27.989114 73.295233,27.989114 101.183666,0l482.560511,-482.560511l-101.183666,-101.183666zm-27.687073,-27.586393l-53.662581,-53.662581c-1.510204,1.107483 -2.919728,2.114286 -4.329251,3.523809l-482.560511,482.45983c-15.00136,15.00136 -15.00136,39.466664 0,54.468023c15.00136,15.00136 39.466664,15.00136 54.468023,0l482.560511,-482.560511c1.409524,-1.308843 2.416326,-2.819047 3.523809,-4.228571zm155.450329,155.349649c-1.510204,1.107483 -2.919728,2.114286 -4.329251,3.523809l-482.45983,482.560511c-15.00136,15.00136 -15.00136,39.466664 0,54.468023c15.00136,15.00136 39.466664,15.00136 54.468023,0l482.560511,-482.560511c1.308843,-1.308843 2.416326,-2.819047 3.523809,-4.228571l-53.763262,-53.763262z"/>
   <path stroke="null" fill="#5a6268" id="svg_3" d="m281.819565,852.997607c-154.141486,0 -132.092508,-132.092508 -132.092508,-132.092508c-66.046254,0 -77.020403,-43.997276 -77.020403,-43.997276l-66.046254,319.15644l330.23127,-77.020403c-61.616322,-13.289795 -55.072105,-66.046254 -55.072105,-66.046254z"/>
   <path stroke="null" fill="#5a6268" id="svg_4" d="m962.921559,151.75956l-117.393189,-117.393189c-40.473467,-40.574147 -106.21768,-40.574147 -146.691146,0l-50.944214,50.843534l264.084335,264.084335l50.843534,-50.843534c40.674827,-40.473467 40.674827,-106.21768 0.10068,-146.691146z"/>
  </g>
 </g>
</svg>