<svg width="94" height="94" xmlns="http://www.w3.org/2000/svg">

 <g>
  <title>background</title>
  <rect fill="none" id="canvas_background" height="96" width="96" y="-1" x="-1"/>
 </g>
 <g>
  <title>Layer 1</title>
  <g stroke="null" id="svg_1">
   <path stroke="null" id="svg_2" d="m92.074175,42.896896l-40.844302,-40.842266c-2.351762,-2.35278 -6.166503,-2.35278 -8.520301,0l-8.480596,8.482632l10.758038,10.758038c2.500401,-0.845005 5.367311,-0.277936 7.359691,1.715463c2.004597,2.005615 2.566577,4.896959 1.700192,7.406523l10.37015,10.369132c2.509564,-0.865367 5.402944,-0.305424 7.406523,1.70121c2.799717,2.799717 2.799717,7.336276 0,10.138028c-2.801753,2.800735 -7.338312,2.800735 -10.141083,0c-2.105387,-2.107423 -2.626643,-5.202383 -1.558679,-7.796447l-9.671748,-9.67073l0,25.448915c0.682113,0.338002 1.326557,0.787993 1.894645,1.356081c2.799717,2.799717 2.799717,7.336276 0,10.139047c-2.799717,2.798699 -7.33933,2.798699 -10.13701,0c-2.799717,-2.803789 -2.799717,-7.340348 0,-10.139047c0.692294,-0.691275 1.493522,-1.214568 2.348708,-1.564787l0,-25.686127c-0.855186,-0.350219 -1.654378,-0.868421 -2.348708,-1.564787c-2.120658,-2.11964 -2.630716,-5.232925 -1.543407,-7.83717l-10.605327,-10.607363l-28.007347,28.004293c-2.35278,2.354816 -2.35278,6.169557 0,8.522337l40.846338,40.843284c2.351762,2.35278 6.165485,2.35278 8.520301,0l40.653922,-40.653922c2.35278,-2.35278 2.35278,-6.169557 0,-8.522337z" fill="#5a6268"/>
  </g>
 </g>
</svg>