<svg width="800" height="400" xmlns="http://www.w3.org/2000/svg">

 <g>
  <title>background</title>
  <rect fill="none" id="canvas_background" height="402" width="582" y="-1" x="-1"/>
 </g>
 <g>
  <title>Layer 1</title>
  <g id="g4">
   <g transform="matrix(8.3528,0,0,8.3119,-727.13,-3759.5) " id="g6">
    <path fill="#5a6268" d="m94.630642,462.4502l14.204,0c4.1693,0.0354 7.1903,1.2367 9.063,3.604c1.8726,2.3674 2.491,5.6004 1.855,9.699c-0.24737,1.8727 -0.79504,3.71 -1.643,5.512c-0.8127,1.802 -1.9434,3.4273 -3.392,4.876c-1.7667,1.8373 -3.657,3.0033 -5.671,3.498c-2.014,0.49467 -4.0987,0.742 -6.254,0.742l-6.36,0l-2.014,10.07l-7.367,0l7.579,-38.001m6.201,6.042l-3.18,15.9c0.21198,0.0353 0.42398,0.053 0.636,0.053l0.742,0c3.392,0.0353 6.2186,-0.30033 8.48,-1.007c2.2613,-0.74199 3.7806,-3.3213 4.558,-7.738c0.63597,-3.71 -0.00003,-5.8476 -1.908,-6.413c-1.8727,-0.56531 -4.2224,-0.83031 -7.049,-0.795c-0.42402,0.0353 -0.83035,0.053 -1.219,0.053c-0.35335,0.00002 -0.72435,0.00002 -1.113,0l0.053,-0.053" id="path8"/>
    <path fill="#5a6268" d="m128.146642,452.3302l7.314,0l-2.067,10.123l6.572,0c3.604,0.0707 6.2893,0.81269 8.056,2.226c1.802,1.4134 2.332,4.0987 1.59,8.056l-3.551,17.649l-7.42,0l3.392,-16.854c0.35328,-1.7666 0.2473,-3.021 -0.318,-3.763c-0.56536,-0.74198 -1.7844,-1.113 -3.657,-1.113l-5.883,-0.053l-4.346,21.783l-7.314,0l7.632,-38.054" id="path10"/>
    <path fill="#5a6268" d="m157.466642,462.4502l14.204,0c4.1693,0.0354 7.1903,1.2367 9.063,3.604c1.8726,2.3674 2.491,5.6004 1.855,9.699c-0.24737,1.8727 -0.79503,3.71 -1.643,5.512c-0.8127,1.802 -1.9434,3.4273 -3.392,4.876c-1.7667,1.8373 -3.657,3.0033 -5.671,3.498c-2.014,0.49467 -4.0987,0.742 -6.254,0.742l-6.36,0l-2.014,10.07l-7.367,0l7.579,-38.001m6.201,6.042l-3.18,15.9c0.21199,0.0353 0.42399,0.053 0.636,0.053l0.742,0c3.392,0.0353 6.2186,-0.30033 8.48,-1.007c2.2613,-0.74199 3.7806,-3.3213 4.558,-7.738c0.63597,-3.71 -0.00003,-5.8476 -1.908,-6.413c-1.8727,-0.56531 -4.2224,-0.83031 -7.049,-0.795c-0.42402,0.0353 -0.83035,0.053 -1.219,0.053c-0.35335,0.00002 -0.72435,0.00002 -1.113,0l0.053,-0.053" id="path12"/>
   </g>
  </g>
 </g>
</svg>