<svg width="92" height="92.001" xmlns="http://www.w3.org/2000/svg">

 <g>
  <title>background</title>
  <rect fill="none" id="canvas_background" height="402" width="582" y="-1" x="-1"/>
 </g>
 <g>
  <title>Layer 1</title>
  <path fill="#5a6268" id="svg_1" d="m22.366,30.569c1.004,0 1.974,0.152 2.887,0.434c3.448,-3.864 7.271,-7.379 11.411,-10.5c-0.173,-0.731 -0.275,-1.489 -0.275,-2.274c0,-1.084 0.184,-2.125 0.51,-3.1c-4.637,-3.328 -9.682,-6.12 -15.047,-8.279c-5.031,3.109 -9.418,7.162 -12.914,11.912c2.596,4.596 5.682,8.883 9.189,12.784c1.284,-0.62 2.719,-0.977 4.239,-0.977zm-9.787,9.786c0,-1.374 0.287,-2.682 0.798,-3.868c-3.142,-3.448 -5.986,-7.17 -8.479,-11.135c-3.127,6.21 -4.898,13.22 -4.898,20.647c0,8.602 2.366,16.647 6.476,23.533c1.468,-8.277 4.254,-16.096 8.103,-23.268c-1.251,-1.642 -2,-3.685 -2,-5.909zm33.597,-31.914c2.585,0 4.929,1.009 6.678,2.646c5.106,-2.197 10.484,-3.881 16.078,-4.958c-6.753,-3.891 -14.579,-6.129 -22.933,-6.129c-5.694,0 -11.145,1.043 -16.179,2.936c3.996,1.972 7.803,4.276 11.385,6.873c1.458,-0.864 3.154,-1.368 4.971,-1.368zm14.636,46.097c0.609,-1.268 1.474,-2.389 2.543,-3.281c-2.888,-8.891 -7.465,-17.021 -13.359,-24.016c-1.173,0.498 -2.464,0.774 -3.82,0.774c-2.123,0 -4.082,-0.684 -5.686,-1.832c-3.547,2.696 -6.83,5.719 -9.815,9.018c0.932,1.497 1.479,3.261 1.479,5.154c0,1.023 -0.158,2.007 -0.448,2.933c8.584,5.736 18.463,9.668 29.106,11.25zm12.694,13.211c0.135,1.853 0.206,3.723 0.206,5.609c0,3.321 -0.212,6.592 -0.612,9.805c7.799,-5.698 13.74,-13.787 16.734,-23.193c-3.547,0.858 -7.188,1.471 -10.902,1.828c-0.873,2.678 -2.866,4.845 -5.426,5.951zm-14.988,-6.633c-11.354,-1.881 -21.883,-6.213 -31.046,-12.421c-1.487,0.912 -3.232,1.449 -5.105,1.449c-0.688,0 -1.358,-0.073 -2.007,-0.208c-4.387,8.317 -7.19,17.593 -7.996,27.428c4.38,4.696 9.724,8.479 15.727,11.019c7.452,-11.462 17.872,-20.943 30.427,-27.267zm18.361,-49.21c-7.371,0.711 -14.412,2.561 -20.967,5.342c0.035,0.323 0.051,0.649 0.051,0.98c0,1.545 -0.368,3.001 -1.005,4.301c6.548,7.688 11.635,16.648 14.846,26.456c3.979,0.071 7.382,2.509 8.845,5.971c4.428,-0.449 8.74,-1.296 12.894,-2.518c0.294,-2.104 0.457,-4.251 0.457,-6.439c0,-13.52 -5.834,-25.677 -15.121,-34.093zm-13.437,54.439c-11.72,5.49 -21.519,13.945 -28.616,24.282c3.577,0.893 7.318,1.374 11.173,1.374c6.939,0 13.514,-1.546 19.413,-4.297c0.948,-4.637 1.45,-9.433 1.45,-14.346c0,-1.775 -0.08,-3.532 -0.213,-5.273c-1.182,-0.379 -2.266,-0.973 -3.207,-1.74z"/>
  <g id="svg_2"/>
  <g id="svg_3"/>
  <g id="svg_4"/>
  <g id="svg_5"/>
  <g id="svg_6"/>
  <g id="svg_7"/>
  <g id="svg_8"/>
  <g id="svg_9"/>
  <g id="svg_10"/>
  <g id="svg_11"/>
  <g id="svg_12"/>
  <g id="svg_13"/>
  <g id="svg_14"/>
  <g id="svg_15"/>
  <g id="svg_16"/>
 </g>
</svg>